<svg xmlns="http://www.w3.org/2000/svg" width="372.529" height="358" viewBox="0 0 372.529 358"><g transform="translate(72.5 140.5)"><path d="M88.073,266.174a62.187,62.187,0,0,1-13.553-1.428A49.723,49.723,0,0,1,51.78,253.034,61.919,61.919,0,0,1,42.6,242.587,33.993,33.993,0,0,1,38.558,235a39.13,39.13,0,0,1-2.041-7.8,95.967,95.967,0,0,1-.758-16.024c.072-9.488.147-19.3-4.581-29.025-1.527-3.142-5.443-5.273-10.4-7.97A84.1,84.1,0,0,1,3.854,162.845c-1.718-1.535-4.566-5.161-4.342-12.194a35.458,35.458,0,0,1,2.752-11.892,75.042,75.042,0,0,1,8.745-15.435c9.126-12.767,23.391-26.812,42.4-41.743C75.9,63.912,83.6,52.3,81.995,22.3c-.192-3.595,1.311-7.187,4.346-10.388,3.476-3.667,8.865-6.743,15.583-8.9A70.7,70.7,0,0,1,113.384.431,96.073,96.073,0,0,1,127-.5a128.765,128.765,0,0,1,24.876,2.565,170.088,170.088,0,0,1,28.7,8.488c22.057,8.613,44.109,21.9,65.542,39.5,9.485,7.853,17.346,18.713,22.737,31.407a97.133,97.133,0,0,1,7.636,41.17,91.587,91.587,0,0,1-2.767,19.351,88.164,88.164,0,0,1-7.21,18.88,94.648,94.648,0,0,1-29.5,33.32c-33.764,24.1-61.642,41.493-85.228,53.176-6.212,3.077-12.235,5.807-17.9,8.112-5.759,2.344-11.335,4.326-16.573,5.891a125.013,125.013,0,0,1-15.265,3.593A86.139,86.139,0,0,1,88.073,266.174ZM127,.5C109.175.5,94.247,5.022,87.066,12.6c-2.841,3-4.25,6.333-4.073,9.647a97.14,97.14,0,0,1-.644,19.681,48.7,48.7,0,0,1-4.722,15.1,54.3,54.3,0,0,1-9.3,12.727A134.678,134.678,0,0,1,54.024,82.366c-18.932,14.873-33.131,28.848-42.2,41.538C4.661,133.923.75,143.182.512,150.682c-.211,6.627,2.421,10,4.009,11.417a83.261,83.261,0,0,0,16.734,11.2c5.115,2.783,9.155,4.981,10.823,8.412,4.83,9.936,4.754,19.866,4.681,29.47-.083,10.88-.161,21.156,6.656,30.835C54.392,257.6,69,265.174,88.073,265.174c17.158,0,37.854-6.12,63.27-18.709,23.537-11.659,51.371-29.026,85.091-53.094,24.17-17.251,38.041-42.385,39.059-70.773.992-27.682-10.787-55.853-30.01-71.769C192.154,7.039,148.358.5,127,.5Z" transform="translate(-24.261 -94.337)" fill="#fafafa"/><path d="M80.18,241.829a56.772,56.772,0,0,1-12.349-1.3,45.347,45.347,0,0,1-20.721-10.65,56.334,56.334,0,0,1-8.367-9.5,30.9,30.9,0,0,1-3.683-6.906,35.527,35.527,0,0,1-1.861-7.1,87.018,87.018,0,0,1-.691-14.564c.066-8.613.133-17.52-4.165-26.344-1.384-2.841-4.944-4.774-9.45-7.22a76.62,76.62,0,0,1-15.415-10.3c-1.569-1.4-4.172-4.7-3.968-11.111a32.19,32.19,0,0,1,2.508-10.818A68.165,68.165,0,0,1,9.985,112c8.311-11.6,21.3-24.362,38.608-37.929C69.054,58.03,76.059,47.489,74.6,20.256c-.175-3.272,1.192-6.541,3.953-9.454,3.167-3.341,8.079-6.143,14.2-8.1A64.5,64.5,0,0,1,103.207.347,87.688,87.688,0,0,1,115.618-.5a117.523,117.523,0,0,1,22.656,2.331,155.153,155.153,0,0,1,26.138,7.713c20.085,7.826,40.165,19.9,59.681,35.891A74.992,74.992,0,0,1,244.8,73.977a88.107,88.107,0,0,1,6.958,37.412,83.072,83.072,0,0,1-2.519,17.59,80.021,80.021,0,0,1-6.567,17.162A86.079,86.079,0,0,1,215.8,176.428c-30.74,21.892-56.122,37.693-77.6,48.306a203.359,203.359,0,0,1-31.39,12.723,114.079,114.079,0,0,1-13.9,3.266A78.647,78.647,0,0,1,80.18,241.829ZM115.618.5C99.388.5,85.8,4.608,79.281,11.49c-2.568,2.709-3.84,5.722-3.68,8.713a88.088,88.088,0,0,1-.587,17.887,44.211,44.211,0,0,1-4.3,13.73,49.37,49.37,0,0,1-8.47,11.572A122.566,122.566,0,0,1,49.21,74.855c-17.233,13.508-30.157,26.2-38.412,37.724-6.514,9.093-10.071,17.5-10.287,24.3-.191,6,2.2,9.049,3.635,10.333a75.772,75.772,0,0,0,15.226,10.164c4.664,2.532,8.347,4.532,9.872,7.661,4.4,9.035,4.333,18.061,4.266,26.79-.075,9.875-.146,19.2,6.051,27.982,9.985,14.146,23.271,21.022,40.62,21.021,15.614,0,34.449-5.558,57.581-16.991,21.427-10.589,46.764-26.364,77.46-48.224,21.995-15.664,34.616-38.485,35.54-64.26.9-25.128-9.817-50.7-27.3-65.146C174.917,6.438,135.057.5,115.618.5Z" transform="translate(-12.084 -81.748)" fill="#fafafa"/><path d="M67.967,205.213a48.168,48.168,0,0,1-10.484-1.1,38.507,38.507,0,0,1-17.6-9.052,47.853,47.853,0,0,1-7.1-8.069,26.294,26.294,0,0,1-3.131-5.875,30.225,30.225,0,0,1-1.581-6.035,75.047,75.047,0,0,1-.586-12.366c.056-7.3.113-14.844-3.523-22.314-1.163-2.388-4.17-4.022-7.979-6.091A65.01,65.01,0,0,1,2.9,125.564c-1.34-1.2-3.563-4.019-3.389-9.485a27.4,27.4,0,0,1,2.132-9.2A57.91,57.91,0,0,1,8.4,94.959c7.049-9.847,18.065-20.677,32.742-32.189C58.466,49.184,64.4,40.255,63.163,17.187a10.927,10.927,0,0,1,3.376-8.08c2.694-2.842,6.869-5.225,12.073-6.891a54.727,54.727,0,0,1,8.866-2A74.36,74.36,0,0,1,98.007-.5a99.631,99.631,0,0,1,19.22,1.979A131.526,131.526,0,0,1,139.4,8.025c17.033,6.641,34.061,16.889,50.611,30.458a63.688,63.688,0,0,1,17.578,24.242,74.861,74.861,0,0,1,5.9,31.769,70.586,70.586,0,0,1-2.138,14.936A67.984,67.984,0,0,1,205.777,124a73.078,73.078,0,0,1-22.8,25.717c-26.061,18.573-47.58,31.978-65.788,40.983a172.388,172.388,0,0,1-26.621,10.8,96.726,96.726,0,0,1-11.794,2.772A66.7,66.7,0,0,1,67.967,205.213ZM98.007.5C84.274.5,72.782,3.974,67.265,9.794a9.959,9.959,0,0,0-3.1,7.339,74.846,74.846,0,0,1-.5,15.189,37.6,37.6,0,0,1-3.656,11.67,41.955,41.955,0,0,1-7.192,9.834,103.99,103.99,0,0,1-11.054,9.732C6.441,91.262.755,108.376.509,116.112c-.161,5.059,1.845,7.627,3.056,8.707a64.165,64.165,0,0,0,12.893,8.612c3.965,2.154,7.1,3.856,8.4,6.532,3.739,7.68,3.681,15.346,3.624,22.759-.064,8.364-.124,16.264,5.115,23.692,8.449,11.978,19.691,17.8,34.37,17.8,13.223,0,29.178-4.712,48.777-14.4,18.159-8.981,39.634-22.36,65.651-40.9,18.624-13.273,29.312-32.61,30.094-54.449.763-21.294-8.311-42.963-23.118-55.2C148.244,5.535,114.476.5,98.007.5Z" transform="translate(7.056 -63.441)" fill="#fafafa"/><path d="M98.668,295.233A70.261,70.261,0,0,1,83.5,293.65a55.838,55.838,0,0,1-25.447-12.98,68.852,68.852,0,0,1-10.279-11.58,37.537,37.537,0,0,1-4.519-8.41,43.017,43.017,0,0,1-2.284-8.646c-.94-5.814-.9-11.621-.849-17.769.081-10.532.165-21.422-5.137-32.222-1.719-3.5-6.113-5.87-11.677-8.867-5.418-2.919-12.16-6.552-18.947-12.56-1.916-1.7-5.093-5.7-4.847-13.478a38.944,38.944,0,0,1,3.076-13.175,82.946,82.946,0,0,1,9.788-17.114c10.22-14.162,26.2-29.741,47.493-46.305,25.212-19.613,33.844-32.5,32.049-65.812-.212-3.939,1.437-7.881,4.77-11.4,3.87-4.084,9.9-7.512,17.431-9.914A79.648,79.648,0,0,1,126.981.539,108.558,108.558,0,0,1,142.276-.5a145.56,145.56,0,0,1,27.856,2.845,191.908,191.908,0,0,1,32.144,9.414c24.7,9.553,49.4,24.295,73.411,43.815,10.613,8.7,19.412,20.735,25.447,34.8A106.788,106.788,0,0,1,309.7,136a100.64,100.64,0,0,1-3.091,21.468,97.171,97.171,0,0,1-8.07,20.947c-7.553,14.37-18.67,26.807-33.043,36.966-37.823,26.733-69.053,46.028-95.473,58.987-6.958,3.413-13.7,6.44-20.049,9-6.451,2.6-12.7,4.8-18.561,6.534a141.15,141.15,0,0,1-17.094,3.985A97.36,97.36,0,0,1,98.668,295.233ZM142.276.5a93.416,93.416,0,0,0-27.853,3.874c-7.373,2.351-13.254,5.687-17.009,9.649-3.139,3.313-4.694,7-4.5,10.656A106.674,106.674,0,0,1,92.2,46.5a53.6,53.6,0,0,1-5.285,16.735,60.211,60.211,0,0,1-10.4,14.106,150.358,150.358,0,0,1-16.023,13.99c-21.218,16.506-37.131,32.017-47.3,46.1C5.16,148.559.777,158.841.513,167.171c-.234,7.367,2.725,11.117,4.51,12.7,6.7,5.932,13.387,9.534,18.759,12.428,5.721,3.082,10.24,5.517,12.1,9.307,5.405,11.012,5.321,22.023,5.239,32.67-.093,12.078-.18,23.486,7.466,34.237,12.31,17.308,28.691,25.721,50.081,25.721,19.232,0,42.427-6.791,70.91-20.762,26.372-12.935,57.556-32.2,95.336-58.906,27.106-19.158,42.655-47.073,43.782-78.6,1.1-30.709-12.107-61.96-33.641-79.616C215.3,7.756,166.214.5,142.276.5Z" transform="translate(-40.866 -108.866)" fill="#fafafa"/><path d="M109.594,330.517a77.382,77.382,0,0,1-16.839-1.77,61.789,61.789,0,0,1-28.24-14.521,76.843,76.843,0,0,1-11.409-12.957,42.083,42.083,0,0,1-5.012-9.4,48.419,48.419,0,0,1-2.533-9.669c-1.044-6.5-.994-13-.942-19.885.09-11.8.183-24-5.712-36.108-1.918-3.938-6.806-6.593-12.994-9.954-6.015-3.267-13.5-7.333-21.035-14.056a15.276,15.276,0,0,1-3.97-5.914,23.266,23.266,0,0,1-1.393-9.137A43.858,43.858,0,0,1,2.93,172.411,93.049,93.049,0,0,1,13.8,153.262c11.349-15.85,29.092-33.288,52.735-51.83,28.022-21.975,37.616-36.419,35.621-73.742a14.882,14.882,0,0,1,1.2-6.625,20.846,20.846,0,0,1,4.157-6.172c4.308-4.545,11-8.359,19.339-11.03A87.958,87.958,0,0,1,141.1.656,119.632,119.632,0,0,1,158.031-.5a160.375,160.375,0,0,1,30.931,3.184,211.809,211.809,0,0,1,35.7,10.538c27.435,10.695,54.865,27.2,81.525,49.052,11.786,9.741,21.556,23.214,28.256,38.962a120.352,120.352,0,0,1,9.495,51.084,113.467,113.467,0,0,1-3.438,24.014,109.277,109.277,0,0,1-8.961,23.429c-8.385,16.074-20.723,29.986-36.674,41.351-42.009,29.931-76.694,51.534-106.038,66.044-7.728,3.821-15.219,7.21-22.266,10.073-7.163,2.911-14.1,5.371-20.611,7.314a155.682,155.682,0,0,1-18.98,4.46A107.255,107.255,0,0,1,109.594,330.517ZM158.031.5C135.8.5,117.189,6.138,108.237,15.581c-3.548,3.743-5.307,7.912-5.085,12.056a120.338,120.338,0,0,1-.8,24.423,60.3,60.3,0,0,1-5.864,18.719A67.334,67.334,0,0,1,84.941,86.56,167.368,167.368,0,0,1,67.15,102.22C43.581,120.7,25.9,138.071,14.61,153.844,5.686,166.309.811,177.834.515,187.173c-.263,8.28,3.038,12.5,5.029,14.274,7.448,6.646,14.877,10.681,20.847,13.924,6.346,3.447,11.358,6.169,13.416,10.4,6,12.317,5.9,24.638,5.813,36.553-.1,13.534-.2,26.318,8.3,38.373,13.684,19.4,31.895,28.825,55.671,28.824,21.37,0,47.141-7.607,78.786-23.254,29.3-14.485,63.936-36.062,105.9-65.962,30.11-21.454,47.389-52.712,48.654-88.016,1.233-34.419-13.442-69.447-37.387-89.239C239.157,8.626,184.627.5,158.031.5Z" transform="translate(-57.471 -126.509)" fill="rgba(250,250,250,0.9)"/><path d="M118.534,357.5a83.639,83.639,0,0,1-18.2-1.914,66.785,66.785,0,0,1-30.526-15.7,83.082,83.082,0,0,1-12.333-14.009,45.487,45.487,0,0,1-5.416-10.163,52.345,52.345,0,0,1-2.738-10.451c-1.128-7.033-1.075-14.062-1.018-21.5.1-12.77.2-25.974-6.182-39.079-2.08-4.272-7.372-7.147-14.071-10.786-6.5-3.533-14.6-7.93-22.743-15.2a16.485,16.485,0,0,1-4.283-6.382,25.131,25.131,0,0,1-1.5-9.869,47.412,47.412,0,0,1,3.691-15.922,100.622,100.622,0,0,1,11.749-20.705c12.273-17.143,31.46-36,57.029-56.059,30.32-23.782,40.7-39.414,38.542-79.806a16.06,16.06,0,0,1,1.3-7.149,22.512,22.512,0,0,1,4.489-6.666c4.655-4.911,11.882-9.032,20.9-11.92A95.079,95.079,0,0,1,152.614.75,129.322,129.322,0,0,1,170.922-.5a173.39,173.39,0,0,1,33.447,3.444,229.018,229.018,0,0,1,38.6,11.4C272.638,25.909,302.3,43.76,331.133,67.4a101.18,101.18,0,0,1,17.4,18.726,120.261,120.261,0,0,1,13.15,23.407,130.172,130.172,0,0,1,10.266,55.244,122.722,122.722,0,0,1-3.717,25.969,118.184,118.184,0,0,1-9.689,25.336c-9.065,17.382-22.407,32.427-39.653,44.717-45.433,32.377-82.946,55.746-114.682,71.44-8.357,4.133-16.459,7.8-24.079,10.9-7.746,3.148-15.245,5.81-22.289,7.911a168.319,168.319,0,0,1-20.523,4.824A115.956,115.956,0,0,1,118.534,357.5ZM170.922.5c-24.05,0-44.194,6.1-53.884,16.325-3.847,4.058-5.753,8.579-5.513,13.074a130.157,130.157,0,0,1-.865,26.411,65.2,65.2,0,0,1-6.339,20.237A72.8,72.8,0,0,1,91.84,93.609,180.994,180.994,0,0,1,72.6,110.545c-25.494,20-44.615,38.788-56.833,55.854C6.112,179.889.837,192.364.516,202.475c-.285,8.974,3.294,13.546,5.453,15.473,8.059,7.193,16.1,11.559,22.555,15.067,6.857,3.725,12.273,6.667,14.493,11.227C49.5,257.559,49.4,270.882,49.3,283.767c-.112,14.648-.217,28.483,8.989,41.534C73.1,346.3,92.8,356.5,118.534,356.5c23.12,0,51-8.23,85.23-25.159,31.687-15.671,69.155-39.012,114.545-71.358,32.576-23.215,51.271-57.04,52.64-95.243,1.335-37.246-14.543-75.152-40.451-96.569C258.682,9.292,199.693.5,170.922.5Z" transform="translate(-72 -140)" fill="rgba(250,250,250,0.7)"/></g></svg>