<svg xmlns="http://www.w3.org/2000/svg" xmlns:xlink="http://www.w3.org/1999/xlink" width="261.735" height="260.915" viewBox="0 0 261.735 260.915"><defs><filter id="a" x="26.82" y="6.264" width="219.908" height="219.908" filterUnits="userSpaceOnUse"><feOffset dy="4" input="SourceAlpha"/><feGaussianBlur stdDeviation="11" result="b"/><feFlood flood-opacity="0.102"/><feComposite operator="in" in2="b"/><feComposite in="SourceGraphic"/></filter><filter id="c" x="79.713" y="78.892" width="182.023" height="182.023" filterUnits="userSpaceOnUse"><feOffset dy="4" input="SourceAlpha"/><feGaussianBlur stdDeviation="11" result="d"/><feFlood flood-opacity="0.102"/><feComposite operator="in" in2="d"/><feComposite in="SourceGraphic"/></filter><filter id="e" x="0" y="0" width="182.023" height="182.023" filterUnits="userSpaceOnUse"><feOffset dy="4" input="SourceAlpha"/><feGaussianBlur stdDeviation="11" result="f"/><feFlood flood-opacity="0.102"/><feComposite operator="in" in2="f"/><feComposite in="SourceGraphic"/></filter><linearGradient id="g" x1="0.113" y1="0.117" x2="0.718" y2="1" gradientUnits="objectBoundingBox"><stop offset="0" stop-color="#ffcd62"/><stop offset="1" stop-color="#fea12f"/></linearGradient></defs><g transform="translate(-160.939 -351.368)"><g transform="matrix(1, 0, 0, 1, 160.94, 351.37)" filter="url(#a)"><circle cx="54.625" cy="54.625" r="54.625" transform="matrix(0.77, 0.64, -0.64, 0.77, 130.01, 35.26)" fill="rgba(255,255,255,0.5)"/></g><g transform="matrix(1, 0, 0, 1, 160.94, 351.37)" filter="url(#c)"><circle cx="41.178" cy="41.178" r="41.178" transform="matrix(0.77, 0.64, -0.64, 0.77, 165.62, 107.89)" fill="rgba(255,255,255,0.5)"/></g><g transform="matrix(1, 0, 0, 1, 160.94, 351.37)" filter="url(#e)"><circle cx="41.178" cy="41.178" r="41.178" transform="matrix(0.77, 0.64, -0.64, 0.77, 85.91, 29)" fill="rgba(255,255,255,0.5)"/></g><circle cx="52.103" cy="52.103" r="52.103" transform="matrix(0.766, 0.642, -0.642, 0.766, 311.483, 355.596)" fill="url(#g)"/></g></svg>